<svg xmlns="http://www.w3.org/2000/svg" viewBox="0 0 1100 480" role="img" aria-label="Live repository pulse">
  <title>Loop Engineering Lite — live pulse</title>
  <desc>Generative graphic redrawn by CI from stars, forks, watchers, issues, contributors, and a stored daily history.</desc>
  <defs>
    <linearGradient id="bg" x1="0" y1="0" x2="1" y2="1">
      <stop offset="0%" stop-color="#070b14"/>
      <stop offset="100%" stop-color="#111827"/>
    </linearGradient>
  </defs>
  <rect width="1100" height="480" rx="20" fill="url(#bg)"/>
  <rect x="1" y="1" width="1098" height="478" rx="20" fill="none" stroke="#1f2937"/>
  <text x="40" y="42" fill="#5eead4" font-family="ui-sans-serif,system-ui,sans-serif" font-size="12" letter-spacing="3">SELF-UPDATING / CI WRITES THIS README</text>
  <text x="40" y="74" fill="#f9fafb" font-family="ui-sans-serif,system-ui,sans-serif" font-size="26" font-weight="700">Repository pulse</text>
  <text x="40" y="100" fill="#9ca3af" font-family="ui-sans-serif,system-ui,sans-serif" font-size="13">jeremy-jaeger/loop-engineering-lite · 2026-08-24 07:39 UTC · live GitHub API</text>
  <g><circle cx="320" cy="200" r="50" fill="none" stroke="rgba(20,184,166,0.35)" stroke-width="1.2" /><circle cx="320" cy="200" r="72" fill="none" stroke="rgba(20,184,166,0.31)" stroke-width="1.3" /><circle cx="320" cy="200" r="94" fill="none" stroke="rgba(20,184,166,0.27)" stroke-width="1.5" /></g>
  <g><circle cx="404.8" cy="275.8" r="1.3" fill="hsla(195,70%,65%,0.74)" /><circle cx="289.2" cy="274.5" r="2.3" fill="hsla(212,70%,65%,0.64)" /><circle cx="459.4" cy="182.5" r="2.3" fill="hsla(197,70%,65%,0.84)" /><circle cx="213.7" cy="119.8" r="1.7" fill="hsla(213,70%,65%,0.52)" /><circle cx="387.5" cy="151.4" r="3.5" fill="hsla(181,70%,65%,0.50)" /><circle cx="278.4" cy="182.5" r="2.4" fill="hsla(184,70%,65%,0.73)" /><circle cx="281.3" cy="182.1" r="2.4" fill="hsla(225,70%,65%,0.79)" /><circle cx="326.6" cy="126.9" r="2.9" fill="hsla(191,70%,65%,0.35)" /><circle cx="416.4" cy="272.9" r="4.3" fill="hsla(190,70%,65%,0.62)" /><circle cx="313.2" cy="250.1" r="1.3" fill="hsla(181,70%,65%,0.41)" /><circle cx="333.4" cy="222.2" r="2.6" fill="hsla(169,70%,65%,0.86)" /><circle cx="100.8" cy="192.7" r="3.7" fill="hsla(192,70%,65%,0.65)" /><circle cx="121.5" cy="170.4" r="1.7" fill="hsla(197,70%,65%,0.86)" /><circle cx="467.3" cy="247.4" r="1.5" fill="hsla(188,70%,65%,0.85)" /><circle cx="307.9" cy="225.2" r="4.4" fill="hsla(185,70%,65%,0.95)" /><circle cx="267.7" cy="212.4" r="4.2" fill="hsla(185,70%,65%,0.82)" /><circle cx="309.6" cy="121.4" r="1.6" fill="hsla(199,70%,65%,0.60)" /><circle cx="212.5" cy="208.3" r="2.2" fill="hsla(192,70%,65%,0.88)" /><circle cx="276.4" cy="204.2" r="1.8" fill="hsla(197,70%,65%,0.55)" /><circle cx="464.5" cy="225.2" r="2.6" fill="hsla(213,70%,65%,0.89)" /><circle cx="488.4" cy="188.8" r="3.8" fill="hsla(212,70%,65%,0.77)" /><circle cx="370.4" cy="188.9" r="1.9" fill="hsla(204,70%,65%,0.80)" /><circle cx="400.3" cy="241.6" r="1.6" fill="hsla(185,70%,65%,0.83)" /><circle cx="396.6" cy="150.0" r="1.3" fill="hsla(188,70%,65%,0.83)" /></g>
  <circle cx="320" cy="200" r="18" fill="#14b8a6"/>
  <text x="320" y="205" text-anchor="middle" fill="#042f2e" font-family="ui-sans-serif,system-ui,sans-serif" font-size="11" font-weight="700">VFS</text>
  <rect x="640" y="198.0" width="54" height="12.0" rx="8" fill="#5eead4" opacity="0.9"/><text x="667" y="236" text-anchor="middle" fill="#e5e7eb" font-family="ui-sans-serif,system-ui,sans-serif" font-size="13" font-weight="700">0</text><text x="667" y="256" text-anchor="middle" fill="#9ca3af" font-family="ui-sans-serif,system-ui,sans-serif" font-size="11">stars</text><rect x="740" y="198.0" width="54" height="12.0" rx="8" fill="#fbbf24" opacity="0.9"/><text x="767" y="236" text-anchor="middle" fill="#e5e7eb" font-family="ui-sans-serif,system-ui,sans-serif" font-size="13" font-weight="700">0</text><text x="767" y="256" text-anchor="middle" fill="#9ca3af" font-family="ui-sans-serif,system-ui,sans-serif" font-size="11">forks</text><rect x="840" y="198.0" width="54" height="12.0" rx="8" fill="#7dd3fc" opacity="0.9"/><text x="867" y="236" text-anchor="middle" fill="#e5e7eb" font-family="ui-sans-serif,system-ui,sans-serif" font-size="13" font-weight="700">0</text><text x="867" y="256" text-anchor="middle" fill="#9ca3af" font-family="ui-sans-serif,system-ui,sans-serif" font-size="11">watch</text><rect x="940" y="128.0" width="54" height="82.0" rx="8" fill="#fda4af" opacity="0.9"/><text x="967" y="236" text-anchor="middle" fill="#e5e7eb" font-family="ui-sans-serif,system-ui,sans-serif" font-size="13" font-weight="700">3</text><text x="967" y="256" text-anchor="middle" fill="#9ca3af" font-family="ui-sans-serif,system-ui,sans-serif" font-size="11">issues</text>
  <text x="640" y="292" fill="#9ca3af" font-family="ui-sans-serif,system-ui,sans-serif" font-size="11">star growth (1 daily samples)</text><rect x="632" y="298" width="396" height="86" rx="10" fill="#0b1220" stroke="#1f2937"/><polyline fill="none" stroke="#5eead4" stroke-width="2" points="640.0,370.0"/>
  <text x="40" y="430" fill="#6b7280" font-family="ui-sans-serif,system-ui,sans-serif" font-size="12">contributors: jeremy-jaeger</text>
  <text x="40" y="452" fill="#4b5563" font-family="ui-sans-serif,system-ui,sans-serif" font-size="11">sparkline waiting for day 2 · tip 42b94ea</text>
</svg>
