<svg xmlns="http://www.w3.org/2000/svg" viewBox="0 0 1100 480" role="img" aria-label="Live repository pulse">
  <title>Loop Engineering Lite — live pulse</title>
  <desc>Generative graphic redrawn by CI from stars, forks, watchers, issues, contributors, and a stored daily history.</desc>
  <defs>
    <linearGradient id="bg" x1="0" y1="0" x2="1" y2="1">
      <stop offset="0%" stop-color="#070b14"/>
      <stop offset="100%" stop-color="#111827"/>
    </linearGradient>
  </defs>
  <rect width="1100" height="480" rx="20" fill="url(#bg)"/>
  <rect x="1" y="1" width="1098" height="478" rx="20" fill="none" stroke="#1f2937"/>
  <text x="40" y="42" fill="#5eead4" font-family="ui-sans-serif,system-ui,sans-serif" font-size="12" letter-spacing="3">SELF-UPDATING / CI WRITES THIS README</text>
  <text x="40" y="74" fill="#f9fafb" font-family="ui-sans-serif,system-ui,sans-serif" font-size="26" font-weight="700">Repository pulse</text>
  <text x="40" y="100" fill="#9ca3af" font-family="ui-sans-serif,system-ui,sans-serif" font-size="13">jeremy-jaeger/loop-engineering-lite · 2026-09-21 14:14 UTC · live GitHub API</text>
  <g><circle cx="320" cy="200" r="50" fill="none" stroke="rgba(20,184,166,0.35)" stroke-width="1.2" /><circle cx="320" cy="200" r="72" fill="none" stroke="rgba(20,184,166,0.31)" stroke-width="1.3" /><circle cx="320" cy="200" r="94" fill="none" stroke="rgba(20,184,166,0.27)" stroke-width="1.5" /></g>
  <g><circle cx="318.2" cy="93.6" r="3.7" fill="hsla(182,70%,65%,0.40)" /><circle cx="340.6" cy="95.3" r="2.8" fill="hsla(193,70%,65%,0.26)" /><circle cx="232.3" cy="71.2" r="2.0" fill="hsla(171,70%,65%,0.48)" /><circle cx="96.1" cy="237.6" r="4.1" fill="hsla(175,70%,65%,0.31)" /><circle cx="133.5" cy="277.5" r="1.3" fill="hsla(206,70%,65%,0.73)" /><circle cx="317.9" cy="235.3" r="3.3" fill="hsla(186,70%,65%,0.50)" /><circle cx="413.4" cy="196.0" r="4.2" fill="hsla(194,70%,65%,0.53)" /><circle cx="302.9" cy="228.5" r="3.8" fill="hsla(188,70%,65%,0.71)" /><circle cx="261.7" cy="204.3" r="3.3" fill="hsla(172,70%,65%,0.28)" /><circle cx="310.5" cy="80.0" r="1.5" fill="hsla(187,70%,65%,0.51)" /><circle cx="315.8" cy="147.1" r="2.6" fill="hsla(195,70%,65%,0.42)" /><circle cx="423.8" cy="182.4" r="2.7" fill="hsla(193,70%,65%,0.30)" /><circle cx="126.5" cy="270.7" r="1.9" fill="hsla(186,70%,65%,0.46)" /><circle cx="376.0" cy="151.5" r="1.9" fill="hsla(194,70%,65%,0.66)" /><circle cx="301.7" cy="267.6" r="4.2" fill="hsla(201,70%,65%,0.30)" /><circle cx="285.6" cy="263.6" r="3.7" fill="hsla(187,70%,65%,0.51)" /><circle cx="196.3" cy="217.7" r="3.8" fill="hsla(197,70%,65%,0.72)" /><circle cx="195.2" cy="246.4" r="2.1" fill="hsla(190,70%,65%,0.38)" /><circle cx="217.8" cy="246.2" r="2.8" fill="hsla(219,70%,65%,0.60)" /><circle cx="248.5" cy="139.4" r="2.5" fill="hsla(202,70%,65%,0.41)" /><circle cx="422.1" cy="261.2" r="3.2" fill="hsla(215,70%,65%,0.54)" /><circle cx="311.3" cy="265.9" r="3.5" fill="hsla(180,70%,65%,0.46)" /><circle cx="364.1" cy="272.6" r="3.5" fill="hsla(183,70%,65%,0.57)" /><circle cx="406.8" cy="130.1" r="2.3" fill="hsla(194,70%,65%,0.79)" /></g>
  <circle cx="320" cy="200" r="18" fill="#14b8a6"/>
  <text x="320" y="205" text-anchor="middle" fill="#042f2e" font-family="ui-sans-serif,system-ui,sans-serif" font-size="11" font-weight="700">VFS</text>
  <rect x="640" y="198.0" width="54" height="12.0" rx="8" fill="#5eead4" opacity="0.9"/><text x="667" y="236" text-anchor="middle" fill="#e5e7eb" font-family="ui-sans-serif,system-ui,sans-serif" font-size="13" font-weight="700">0</text><text x="667" y="256" text-anchor="middle" fill="#9ca3af" font-family="ui-sans-serif,system-ui,sans-serif" font-size="11">stars</text><rect x="740" y="198.0" width="54" height="12.0" rx="8" fill="#fbbf24" opacity="0.9"/><text x="767" y="236" text-anchor="middle" fill="#e5e7eb" font-family="ui-sans-serif,system-ui,sans-serif" font-size="13" font-weight="700">0</text><text x="767" y="256" text-anchor="middle" fill="#9ca3af" font-family="ui-sans-serif,system-ui,sans-serif" font-size="11">forks</text><rect x="840" y="198.0" width="54" height="12.0" rx="8" fill="#7dd3fc" opacity="0.9"/><text x="867" y="236" text-anchor="middle" fill="#e5e7eb" font-family="ui-sans-serif,system-ui,sans-serif" font-size="13" font-weight="700">0</text><text x="867" y="256" text-anchor="middle" fill="#9ca3af" font-family="ui-sans-serif,system-ui,sans-serif" font-size="11">watch</text><rect x="940" y="128.0" width="54" height="82.0" rx="8" fill="#fda4af" opacity="0.9"/><text x="967" y="236" text-anchor="middle" fill="#e5e7eb" font-family="ui-sans-serif,system-ui,sans-serif" font-size="13" font-weight="700">4</text><text x="967" y="256" text-anchor="middle" fill="#9ca3af" font-family="ui-sans-serif,system-ui,sans-serif" font-size="11">issues</text>
  <text x="640" y="292" fill="#9ca3af" font-family="ui-sans-serif,system-ui,sans-serif" font-size="11">star growth (29 daily samples)</text><rect x="632" y="298" width="396" height="86" rx="10" fill="#0b1220" stroke="#1f2937"/><polyline fill="none" stroke="#5eead4" stroke-width="2" points="640.0,370.0 653.6,370.0 667.1,370.0 680.7,370.0 694.3,370.0 707.9,370.0 721.4,370.0 735.0,370.0 748.6,370.0 762.1,370.0 775.7,370.0 789.3,370.0 802.9,370.0 816.4,370.0 830.0,370.0 843.6,370.0 857.1,370.0 870.7,370.0 884.3,370.0 897.9,370.0 911.4,370.0 925.0,370.0 938.6,370.0 952.1,370.0 965.7,370.0 979.3,370.0 992.9,370.0 1006.4,370.0 1020.0,370.0"/>
  <text x="40" y="430" fill="#6b7280" font-family="ui-sans-serif,system-ui,sans-serif" font-size="12">contributors: jeremy-jaeger · cursoragent</text>
  <text x="40" y="452" fill="#4b5563" font-family="ui-sans-serif,system-ui,sans-serif" font-size="11">+0 stars vs prior sample · tip 4840810</text>
</svg>
