<svg xmlns="http://www.w3.org/2000/svg" viewBox="0 0 1100 480" role="img" aria-label="Live repository pulse">
  <title>Loop Engineering Lite — live pulse</title>
  <desc>Generative graphic redrawn by CI from stars, forks, watchers, issues, contributors, and a stored daily history.</desc>
  <defs>
    <linearGradient id="bg" x1="0" y1="0" x2="1" y2="1">
      <stop offset="0%" stop-color="#070b14"/>
      <stop offset="100%" stop-color="#111827"/>
    </linearGradient>
  </defs>
  <rect width="1100" height="480" rx="20" fill="url(#bg)"/>
  <rect x="1" y="1" width="1098" height="478" rx="20" fill="none" stroke="#1f2937"/>
  <text x="40" y="42" fill="#5eead4" font-family="ui-sans-serif,system-ui,sans-serif" font-size="12" letter-spacing="3">SELF-UPDATING / CI WRITES THIS README</text>
  <text x="40" y="74" fill="#f9fafb" font-family="ui-sans-serif,system-ui,sans-serif" font-size="26" font-weight="700">Repository pulse</text>
  <text x="40" y="100" fill="#9ca3af" font-family="ui-sans-serif,system-ui,sans-serif" font-size="13">jeremy-jaeger/loop-engineering-lite · 2026-10-06 14:14 UTC · live GitHub API</text>
  <g><circle cx="320" cy="200" r="50" fill="none" stroke="rgba(20,184,166,0.35)" stroke-width="1.2" /><circle cx="320" cy="200" r="72" fill="none" stroke="rgba(20,184,166,0.31)" stroke-width="1.3" /><circle cx="320" cy="200" r="94" fill="none" stroke="rgba(20,184,166,0.27)" stroke-width="1.5" /></g>
  <g><circle cx="138.5" cy="253.0" r="2.8" fill="hsla(167,70%,65%,0.70)" /><circle cx="455.6" cy="227.3" r="4.2" fill="hsla(174,70%,65%,0.52)" /><circle cx="273.8" cy="124.2" r="1.4" fill="hsla(209,70%,65%,0.80)" /><circle cx="366.3" cy="213.2" r="1.8" fill="hsla(215,70%,65%,0.32)" /><circle cx="376.3" cy="261.4" r="2.5" fill="hsla(214,70%,65%,0.78)" /><circle cx="369.6" cy="313.7" r="3.5" fill="hsla(195,70%,65%,0.86)" /><circle cx="468.9" cy="325.0" r="3.5" fill="hsla(178,70%,65%,0.69)" /><circle cx="455.6" cy="133.2" r="1.6" fill="hsla(206,70%,65%,0.55)" /><circle cx="381.0" cy="253.9" r="3.3" fill="hsla(201,70%,65%,0.57)" /><circle cx="375.7" cy="232.9" r="4.2" fill="hsla(192,70%,65%,0.66)" /><circle cx="314.3" cy="162.9" r="2.4" fill="hsla(182,70%,65%,0.46)" /><circle cx="240.5" cy="184.6" r="2.8" fill="hsla(182,70%,65%,0.85)" /><circle cx="168.8" cy="188.2" r="1.4" fill="hsla(213,70%,65%,0.90)" /><circle cx="320.5" cy="239.3" r="3.5" fill="hsla(210,70%,65%,0.43)" /><circle cx="358.8" cy="136.8" r="3.8" fill="hsla(161,70%,65%,0.40)" /><circle cx="231.4" cy="154.4" r="2.8" fill="hsla(202,70%,65%,0.52)" /><circle cx="245.4" cy="152.0" r="2.8" fill="hsla(209,70%,65%,0.59)" /><circle cx="257.8" cy="197.5" r="3.8" fill="hsla(217,70%,65%,0.58)" /><circle cx="310.3" cy="140.1" r="3.0" fill="hsla(197,70%,65%,0.55)" /><circle cx="311.6" cy="153.7" r="2.4" fill="hsla(208,70%,65%,0.28)" /><circle cx="351.2" cy="221.9" r="4.1" fill="hsla(206,70%,65%,0.90)" /><circle cx="401.6" cy="329.6" r="3.3" fill="hsla(182,70%,65%,0.53)" /><circle cx="346.6" cy="217.8" r="4.1" fill="hsla(165,70%,65%,0.71)" /><circle cx="298.9" cy="237.7" r="2.4" fill="hsla(185,70%,65%,0.73)" /></g>
  <circle cx="320" cy="200" r="18" fill="#14b8a6"/>
  <text x="320" y="205" text-anchor="middle" fill="#042f2e" font-family="ui-sans-serif,system-ui,sans-serif" font-size="11" font-weight="700">VFS</text>
  <rect x="640" y="198.0" width="54" height="12.0" rx="8" fill="#5eead4" opacity="0.9"/><text x="667" y="236" text-anchor="middle" fill="#e5e7eb" font-family="ui-sans-serif,system-ui,sans-serif" font-size="13" font-weight="700">0</text><text x="667" y="256" text-anchor="middle" fill="#9ca3af" font-family="ui-sans-serif,system-ui,sans-serif" font-size="11">stars</text><rect x="740" y="198.0" width="54" height="12.0" rx="8" fill="#fbbf24" opacity="0.9"/><text x="767" y="236" text-anchor="middle" fill="#e5e7eb" font-family="ui-sans-serif,system-ui,sans-serif" font-size="13" font-weight="700">0</text><text x="767" y="256" text-anchor="middle" fill="#9ca3af" font-family="ui-sans-serif,system-ui,sans-serif" font-size="11">forks</text><rect x="840" y="198.0" width="54" height="12.0" rx="8" fill="#7dd3fc" opacity="0.9"/><text x="867" y="236" text-anchor="middle" fill="#e5e7eb" font-family="ui-sans-serif,system-ui,sans-serif" font-size="13" font-weight="700">0</text><text x="867" y="256" text-anchor="middle" fill="#9ca3af" font-family="ui-sans-serif,system-ui,sans-serif" font-size="11">watch</text><rect x="940" y="128.0" width="54" height="82.0" rx="8" fill="#fda4af" opacity="0.9"/><text x="967" y="236" text-anchor="middle" fill="#e5e7eb" font-family="ui-sans-serif,system-ui,sans-serif" font-size="13" font-weight="700">4</text><text x="967" y="256" text-anchor="middle" fill="#9ca3af" font-family="ui-sans-serif,system-ui,sans-serif" font-size="11">issues</text>
  <text x="640" y="292" fill="#9ca3af" font-family="ui-sans-serif,system-ui,sans-serif" font-size="11">star growth (44 daily samples)</text><rect x="632" y="298" width="396" height="86" rx="10" fill="#0b1220" stroke="#1f2937"/><polyline fill="none" stroke="#5eead4" stroke-width="2" points="640.0,370.0 648.8,370.0 657.7,370.0 666.5,370.0 675.3,370.0 684.2,370.0 693.0,370.0 701.9,370.0 710.7,370.0 719.5,370.0 728.4,370.0 737.2,370.0 746.0,370.0 754.9,370.0 763.7,370.0 772.6,370.0 781.4,370.0 790.2,370.0 799.1,370.0 807.9,370.0 816.7,370.0 825.6,370.0 834.4,370.0 843.3,370.0 852.1,370.0 860.9,370.0 869.8,370.0 878.6,370.0 887.4,370.0 896.3,370.0 905.1,370.0 914.0,370.0 922.8,370.0 931.6,370.0 940.5,370.0 949.3,370.0 958.1,370.0 967.0,370.0 975.8,370.0 984.7,370.0 993.5,370.0 1002.3,370.0 1011.2,370.0 1020.0,370.0"/>
  <text x="40" y="430" fill="#6b7280" font-family="ui-sans-serif,system-ui,sans-serif" font-size="12">contributors: jeremy-jaeger · cursoragent</text>
  <text x="40" y="452" fill="#4b5563" font-family="ui-sans-serif,system-ui,sans-serif" font-size="11">+0 stars vs prior sample · tip 29c9aff</text>
</svg>
