<svg xmlns="http://www.w3.org/2000/svg" viewBox="0 0 1100 480" role="img" aria-label="Live repository pulse">
  <title>Loop Engineering Lite — live pulse</title>
  <desc>Generative graphic redrawn by CI from stars, forks, watchers, issues, contributors, and a stored daily history.</desc>
  <defs>
    <linearGradient id="bg" x1="0" y1="0" x2="1" y2="1">
      <stop offset="0%" stop-color="#070b14"/>
      <stop offset="100%" stop-color="#111827"/>
    </linearGradient>
  </defs>
  <rect width="1100" height="480" rx="20" fill="url(#bg)"/>
  <rect x="1" y="1" width="1098" height="478" rx="20" fill="none" stroke="#1f2937"/>
  <text x="40" y="42" fill="#5eead4" font-family="ui-sans-serif,system-ui,sans-serif" font-size="12" letter-spacing="3">SELF-UPDATING / CI WRITES THIS README</text>
  <text x="40" y="74" fill="#f9fafb" font-family="ui-sans-serif,system-ui,sans-serif" font-size="26" font-weight="700">Repository pulse</text>
  <text x="40" y="100" fill="#9ca3af" font-family="ui-sans-serif,system-ui,sans-serif" font-size="13">jeremy-jaeger/loop-engineering-lite · 2026-10-08 14:37 UTC · live GitHub API</text>
  <g><circle cx="320" cy="200" r="50" fill="none" stroke="rgba(20,184,166,0.35)" stroke-width="1.2" /><circle cx="320" cy="200" r="72" fill="none" stroke="rgba(20,184,166,0.31)" stroke-width="1.3" /><circle cx="320" cy="200" r="94" fill="none" stroke="rgba(20,184,166,0.27)" stroke-width="1.5" /></g>
  <g><circle cx="249.9" cy="219.1" r="4.0" fill="hsla(181,70%,65%,0.51)" /><circle cx="319.3" cy="97.5" r="1.4" fill="hsla(178,70%,65%,0.80)" /><circle cx="261.4" cy="278.6" r="3.9" fill="hsla(212,70%,65%,0.61)" /><circle cx="278.3" cy="240.6" r="1.5" fill="hsla(211,70%,65%,0.78)" /><circle cx="457.7" cy="238.0" r="2.2" fill="hsla(219,70%,65%,0.91)" /><circle cx="100.9" cy="152.8" r="4.0" fill="hsla(222,70%,65%,0.83)" /><circle cx="165.7" cy="163.8" r="3.9" fill="hsla(209,70%,65%,0.74)" /><circle cx="211.3" cy="220.7" r="2.4" fill="hsla(195,70%,65%,0.76)" /><circle cx="451.4" cy="144.7" r="3.9" fill="hsla(194,70%,65%,0.92)" /><circle cx="357.3" cy="195.1" r="2.8" fill="hsla(206,70%,65%,0.91)" /><circle cx="349.9" cy="113.5" r="2.6" fill="hsla(204,70%,65%,0.84)" /><circle cx="225.1" cy="169.5" r="1.4" fill="hsla(177,70%,65%,0.64)" /><circle cx="297.5" cy="224.7" r="3.7" fill="hsla(222,70%,65%,0.86)" /><circle cx="303.5" cy="160.8" r="1.6" fill="hsla(211,70%,65%,0.93)" /><circle cx="197.5" cy="50.1" r="2.1" fill="hsla(189,70%,65%,0.68)" /><circle cx="367.8" cy="226.9" r="2.4" fill="hsla(211,70%,65%,0.37)" /><circle cx="294.3" cy="273.8" r="3.8" fill="hsla(213,70%,65%,0.71)" /><circle cx="386.3" cy="169.2" r="2.0" fill="hsla(212,70%,65%,0.53)" /><circle cx="434.1" cy="217.6" r="2.1" fill="hsla(204,70%,65%,0.55)" /><circle cx="401.4" cy="231.2" r="3.0" fill="hsla(188,70%,65%,0.77)" /><circle cx="444.4" cy="275.5" r="3.5" fill="hsla(227,70%,65%,0.69)" /><circle cx="385.6" cy="247.5" r="4.0" fill="hsla(195,70%,65%,0.58)" /><circle cx="337.0" cy="261.1" r="4.2" fill="hsla(193,70%,65%,0.42)" /><circle cx="317.6" cy="258.6" r="2.4" fill="hsla(209,70%,65%,0.79)" /></g>
  <circle cx="320" cy="200" r="18" fill="#14b8a6"/>
  <text x="320" y="205" text-anchor="middle" fill="#042f2e" font-family="ui-sans-serif,system-ui,sans-serif" font-size="11" font-weight="700">VFS</text>
  <rect x="640" y="198.0" width="54" height="12.0" rx="8" fill="#5eead4" opacity="0.9"/><text x="667" y="236" text-anchor="middle" fill="#e5e7eb" font-family="ui-sans-serif,system-ui,sans-serif" font-size="13" font-weight="700">0</text><text x="667" y="256" text-anchor="middle" fill="#9ca3af" font-family="ui-sans-serif,system-ui,sans-serif" font-size="11">stars</text><rect x="740" y="198.0" width="54" height="12.0" rx="8" fill="#fbbf24" opacity="0.9"/><text x="767" y="236" text-anchor="middle" fill="#e5e7eb" font-family="ui-sans-serif,system-ui,sans-serif" font-size="13" font-weight="700">0</text><text x="767" y="256" text-anchor="middle" fill="#9ca3af" font-family="ui-sans-serif,system-ui,sans-serif" font-size="11">forks</text><rect x="840" y="198.0" width="54" height="12.0" rx="8" fill="#7dd3fc" opacity="0.9"/><text x="867" y="236" text-anchor="middle" fill="#e5e7eb" font-family="ui-sans-serif,system-ui,sans-serif" font-size="13" font-weight="700">0</text><text x="867" y="256" text-anchor="middle" fill="#9ca3af" font-family="ui-sans-serif,system-ui,sans-serif" font-size="11">watch</text><rect x="940" y="128.0" width="54" height="82.0" rx="8" fill="#fda4af" opacity="0.9"/><text x="967" y="236" text-anchor="middle" fill="#e5e7eb" font-family="ui-sans-serif,system-ui,sans-serif" font-size="13" font-weight="700">4</text><text x="967" y="256" text-anchor="middle" fill="#9ca3af" font-family="ui-sans-serif,system-ui,sans-serif" font-size="11">issues</text>
  <text x="640" y="292" fill="#9ca3af" font-family="ui-sans-serif,system-ui,sans-serif" font-size="11">star growth (46 daily samples)</text><rect x="632" y="298" width="396" height="86" rx="10" fill="#0b1220" stroke="#1f2937"/><polyline fill="none" stroke="#5eead4" stroke-width="2" points="640.0,370.0 648.4,370.0 656.9,370.0 665.3,370.0 673.8,370.0 682.2,370.0 690.7,370.0 699.1,370.0 707.6,370.0 716.0,370.0 724.4,370.0 732.9,370.0 741.3,370.0 749.8,370.0 758.2,370.0 766.7,370.0 775.1,370.0 783.6,370.0 792.0,370.0 800.4,370.0 808.9,370.0 817.3,370.0 825.8,370.0 834.2,370.0 842.7,370.0 851.1,370.0 859.6,370.0 868.0,370.0 876.4,370.0 884.9,370.0 893.3,370.0 901.8,370.0 910.2,370.0 918.7,370.0 927.1,370.0 935.6,370.0 944.0,370.0 952.4,370.0 960.9,370.0 969.3,370.0 977.8,370.0 986.2,370.0 994.7,370.0 1003.1,370.0 1011.6,370.0 1020.0,370.0"/>
  <text x="40" y="430" fill="#6b7280" font-family="ui-sans-serif,system-ui,sans-serif" font-size="12">contributors: jeremy-jaeger · cursoragent</text>
  <text x="40" y="452" fill="#4b5563" font-family="ui-sans-serif,system-ui,sans-serif" font-size="11">+0 stars vs prior sample · tip e8e40f5</text>
</svg>
