<svg xmlns="http://www.w3.org/2000/svg" viewBox="0 0 1100 480" role="img" aria-label="Live repository pulse">
  <title>Loop Engineering Lite — live pulse</title>
  <desc>Generative graphic redrawn by CI from stars, forks, watchers, issues, contributors, and a stored daily history.</desc>
  <defs>
    <linearGradient id="bg" x1="0" y1="0" x2="1" y2="1">
      <stop offset="0%" stop-color="#070b14"/>
      <stop offset="100%" stop-color="#111827"/>
    </linearGradient>
  </defs>
  <rect width="1100" height="480" rx="20" fill="url(#bg)"/>
  <rect x="1" y="1" width="1098" height="478" rx="20" fill="none" stroke="#1f2937"/>
  <text x="40" y="42" fill="#5eead4" font-family="ui-sans-serif,system-ui,sans-serif" font-size="12" letter-spacing="3">SELF-UPDATING / CI WRITES THIS README</text>
  <text x="40" y="74" fill="#f9fafb" font-family="ui-sans-serif,system-ui,sans-serif" font-size="26" font-weight="700">Repository pulse</text>
  <text x="40" y="100" fill="#9ca3af" font-family="ui-sans-serif,system-ui,sans-serif" font-size="13">jeremy-jaeger/loop-engineering-lite · 2026-09-19 11:56 UTC · live GitHub API</text>
  <g><circle cx="320" cy="200" r="50" fill="none" stroke="rgba(20,184,166,0.35)" stroke-width="1.2" /><circle cx="320" cy="200" r="72" fill="none" stroke="rgba(20,184,166,0.31)" stroke-width="1.3" /><circle cx="320" cy="200" r="94" fill="none" stroke="rgba(20,184,166,0.27)" stroke-width="1.5" /></g>
  <g><circle cx="392.7" cy="67.3" r="2.1" fill="hsla(207,70%,65%,0.95)" /><circle cx="151.8" cy="188.9" r="3.2" fill="hsla(196,70%,65%,0.35)" /><circle cx="369.1" cy="174.9" r="2.2" fill="hsla(208,70%,65%,0.53)" /><circle cx="483.2" cy="298.4" r="3.6" fill="hsla(200,70%,65%,0.27)" /><circle cx="206.7" cy="180.7" r="2.8" fill="hsla(188,70%,65%,0.46)" /><circle cx="285.3" cy="296.3" r="1.9" fill="hsla(224,70%,65%,0.81)" /><circle cx="253.3" cy="231.0" r="2.1" fill="hsla(196,70%,65%,0.92)" /><circle cx="453.9" cy="208.5" r="2.0" fill="hsla(162,70%,65%,0.66)" /><circle cx="421.1" cy="198.8" r="4.1" fill="hsla(209,70%,65%,0.76)" /><circle cx="326.0" cy="105.2" r="2.9" fill="hsla(211,70%,65%,0.73)" /><circle cx="380.3" cy="209.8" r="3.9" fill="hsla(176,70%,65%,0.87)" /><circle cx="352.9" cy="229.6" r="3.0" fill="hsla(176,70%,65%,0.91)" /><circle cx="527.8" cy="189.2" r="2.3" fill="hsla(180,70%,65%,0.63)" /><circle cx="311.7" cy="233.1" r="3.3" fill="hsla(220,70%,65%,0.63)" /><circle cx="413.3" cy="204.3" r="2.1" fill="hsla(175,70%,65%,0.73)" /><circle cx="400.0" cy="168.6" r="3.5" fill="hsla(189,70%,65%,0.62)" /><circle cx="198.1" cy="191.6" r="1.7" fill="hsla(206,70%,65%,0.77)" /><circle cx="418.9" cy="169.1" r="2.6" fill="hsla(171,70%,65%,0.45)" /><circle cx="201.5" cy="222.9" r="3.6" fill="hsla(174,70%,65%,0.46)" /><circle cx="460.0" cy="121.0" r="3.7" fill="hsla(204,70%,65%,0.71)" /><circle cx="246.9" cy="138.9" r="1.4" fill="hsla(226,70%,65%,0.63)" /><circle cx="506.0" cy="279.4" r="4.1" fill="hsla(175,70%,65%,0.82)" /><circle cx="224.1" cy="233.1" r="1.8" fill="hsla(195,70%,65%,0.69)" /><circle cx="167.3" cy="192.0" r="2.5" fill="hsla(210,70%,65%,0.73)" /></g>
  <circle cx="320" cy="200" r="18" fill="#14b8a6"/>
  <text x="320" y="205" text-anchor="middle" fill="#042f2e" font-family="ui-sans-serif,system-ui,sans-serif" font-size="11" font-weight="700">VFS</text>
  <rect x="640" y="198.0" width="54" height="12.0" rx="8" fill="#5eead4" opacity="0.9"/><text x="667" y="236" text-anchor="middle" fill="#e5e7eb" font-family="ui-sans-serif,system-ui,sans-serif" font-size="13" font-weight="700">0</text><text x="667" y="256" text-anchor="middle" fill="#9ca3af" font-family="ui-sans-serif,system-ui,sans-serif" font-size="11">stars</text><rect x="740" y="198.0" width="54" height="12.0" rx="8" fill="#fbbf24" opacity="0.9"/><text x="767" y="236" text-anchor="middle" fill="#e5e7eb" font-family="ui-sans-serif,system-ui,sans-serif" font-size="13" font-weight="700">0</text><text x="767" y="256" text-anchor="middle" fill="#9ca3af" font-family="ui-sans-serif,system-ui,sans-serif" font-size="11">forks</text><rect x="840" y="198.0" width="54" height="12.0" rx="8" fill="#7dd3fc" opacity="0.9"/><text x="867" y="236" text-anchor="middle" fill="#e5e7eb" font-family="ui-sans-serif,system-ui,sans-serif" font-size="13" font-weight="700">0</text><text x="867" y="256" text-anchor="middle" fill="#9ca3af" font-family="ui-sans-serif,system-ui,sans-serif" font-size="11">watch</text><rect x="940" y="128.0" width="54" height="82.0" rx="8" fill="#fda4af" opacity="0.9"/><text x="967" y="236" text-anchor="middle" fill="#e5e7eb" font-family="ui-sans-serif,system-ui,sans-serif" font-size="13" font-weight="700">4</text><text x="967" y="256" text-anchor="middle" fill="#9ca3af" font-family="ui-sans-serif,system-ui,sans-serif" font-size="11">issues</text>
  <text x="640" y="292" fill="#9ca3af" font-family="ui-sans-serif,system-ui,sans-serif" font-size="11">star growth (27 daily samples)</text><rect x="632" y="298" width="396" height="86" rx="10" fill="#0b1220" stroke="#1f2937"/><polyline fill="none" stroke="#5eead4" stroke-width="2" points="640.0,370.0 654.6,370.0 669.2,370.0 683.8,370.0 698.5,370.0 713.1,370.0 727.7,370.0 742.3,370.0 756.9,370.0 771.5,370.0 786.2,370.0 800.8,370.0 815.4,370.0 830.0,370.0 844.6,370.0 859.2,370.0 873.8,370.0 888.5,370.0 903.1,370.0 917.7,370.0 932.3,370.0 946.9,370.0 961.5,370.0 976.2,370.0 990.8,370.0 1005.4,370.0 1020.0,370.0"/>
  <text x="40" y="430" fill="#6b7280" font-family="ui-sans-serif,system-ui,sans-serif" font-size="12">contributors: jeremy-jaeger · cursoragent</text>
  <text x="40" y="452" fill="#4b5563" font-family="ui-sans-serif,system-ui,sans-serif" font-size="11">+0 stars vs prior sample · tip 28cb4a7</text>
</svg>
