<svg xmlns="http://www.w3.org/2000/svg" viewBox="0 0 1100 480" role="img" aria-label="Live repository pulse">
  <title>Loop Engineering Lite — live pulse</title>
  <desc>Generative graphic redrawn by CI from stars, forks, watchers, issues, contributors, and a stored daily history.</desc>
  <defs>
    <linearGradient id="bg" x1="0" y1="0" x2="1" y2="1">
      <stop offset="0%" stop-color="#070b14"/>
      <stop offset="100%" stop-color="#111827"/>
    </linearGradient>
  </defs>
  <rect width="1100" height="480" rx="20" fill="url(#bg)"/>
  <rect x="1" y="1" width="1098" height="478" rx="20" fill="none" stroke="#1f2937"/>
  <text x="40" y="42" fill="#5eead4" font-family="ui-sans-serif,system-ui,sans-serif" font-size="12" letter-spacing="3">SELF-UPDATING / CI WRITES THIS README</text>
  <text x="40" y="74" fill="#f9fafb" font-family="ui-sans-serif,system-ui,sans-serif" font-size="26" font-weight="700">Repository pulse</text>
  <text x="40" y="100" fill="#9ca3af" font-family="ui-sans-serif,system-ui,sans-serif" font-size="13">jeremy-jaeger/loop-engineering-lite · 2026-10-09 14:24 UTC · live GitHub API</text>
  <g><circle cx="320" cy="200" r="50" fill="none" stroke="rgba(20,184,166,0.35)" stroke-width="1.2" /><circle cx="320" cy="200" r="72" fill="none" stroke="rgba(20,184,166,0.31)" stroke-width="1.3" /><circle cx="320" cy="200" r="94" fill="none" stroke="rgba(20,184,166,0.27)" stroke-width="1.5" /></g>
  <g><circle cx="362.1" cy="224.4" r="2.9" fill="hsla(179,70%,65%,0.83)" /><circle cx="400.0" cy="149.7" r="4.2" fill="hsla(183,70%,65%,0.58)" /><circle cx="262.1" cy="86.4" r="2.3" fill="hsla(212,70%,65%,0.95)" /><circle cx="300.4" cy="286.5" r="3.1" fill="hsla(211,70%,65%,0.27)" /><circle cx="269.5" cy="262.7" r="4.0" fill="hsla(207,70%,65%,0.47)" /><circle cx="215.3" cy="156.7" r="2.9" fill="hsla(177,70%,65%,0.44)" /><circle cx="294.6" cy="109.2" r="1.8" fill="hsla(207,70%,65%,0.60)" /><circle cx="207.3" cy="259.3" r="1.7" fill="hsla(203,70%,65%,0.78)" /><circle cx="463.1" cy="137.7" r="3.9" fill="hsla(206,70%,65%,0.90)" /><circle cx="145.6" cy="99.3" r="2.8" fill="hsla(180,70%,65%,0.52)" /><circle cx="333.8" cy="256.7" r="3.3" fill="hsla(186,70%,65%,0.75)" /><circle cx="383.7" cy="152.0" r="1.6" fill="hsla(203,70%,65%,0.93)" /><circle cx="427.0" cy="152.3" r="1.7" fill="hsla(218,70%,65%,0.78)" /><circle cx="541.2" cy="227.0" r="2.6" fill="hsla(203,70%,65%,0.70)" /><circle cx="382.9" cy="125.3" r="1.4" fill="hsla(185,70%,65%,0.89)" /><circle cx="295.1" cy="166.6" r="2.8" fill="hsla(173,70%,65%,0.52)" /><circle cx="336.8" cy="265.9" r="4.3" fill="hsla(198,70%,65%,0.53)" /><circle cx="264.9" cy="155.0" r="1.9" fill="hsla(218,70%,65%,0.93)" /><circle cx="450.5" cy="244.0" r="3.1" fill="hsla(209,70%,65%,0.67)" /><circle cx="498.8" cy="185.6" r="4.3" fill="hsla(182,70%,65%,0.34)" /><circle cx="152.1" cy="238.5" r="3.7" fill="hsla(210,70%,65%,0.87)" /><circle cx="406.3" cy="216.3" r="3.9" fill="hsla(198,70%,65%,0.74)" /><circle cx="341.6" cy="220.4" r="2.7" fill="hsla(173,70%,65%,0.53)" /><circle cx="283.2" cy="130.6" r="3.1" fill="hsla(189,70%,65%,0.77)" /></g>
  <circle cx="320" cy="200" r="18" fill="#14b8a6"/>
  <text x="320" y="205" text-anchor="middle" fill="#042f2e" font-family="ui-sans-serif,system-ui,sans-serif" font-size="11" font-weight="700">VFS</text>
  <rect x="640" y="198.0" width="54" height="12.0" rx="8" fill="#5eead4" opacity="0.9"/><text x="667" y="236" text-anchor="middle" fill="#e5e7eb" font-family="ui-sans-serif,system-ui,sans-serif" font-size="13" font-weight="700">0</text><text x="667" y="256" text-anchor="middle" fill="#9ca3af" font-family="ui-sans-serif,system-ui,sans-serif" font-size="11">stars</text><rect x="740" y="198.0" width="54" height="12.0" rx="8" fill="#fbbf24" opacity="0.9"/><text x="767" y="236" text-anchor="middle" fill="#e5e7eb" font-family="ui-sans-serif,system-ui,sans-serif" font-size="13" font-weight="700">0</text><text x="767" y="256" text-anchor="middle" fill="#9ca3af" font-family="ui-sans-serif,system-ui,sans-serif" font-size="11">forks</text><rect x="840" y="198.0" width="54" height="12.0" rx="8" fill="#7dd3fc" opacity="0.9"/><text x="867" y="236" text-anchor="middle" fill="#e5e7eb" font-family="ui-sans-serif,system-ui,sans-serif" font-size="13" font-weight="700">0</text><text x="867" y="256" text-anchor="middle" fill="#9ca3af" font-family="ui-sans-serif,system-ui,sans-serif" font-size="11">watch</text><rect x="940" y="128.0" width="54" height="82.0" rx="8" fill="#fda4af" opacity="0.9"/><text x="967" y="236" text-anchor="middle" fill="#e5e7eb" font-family="ui-sans-serif,system-ui,sans-serif" font-size="13" font-weight="700">4</text><text x="967" y="256" text-anchor="middle" fill="#9ca3af" font-family="ui-sans-serif,system-ui,sans-serif" font-size="11">issues</text>
  <text x="640" y="292" fill="#9ca3af" font-family="ui-sans-serif,system-ui,sans-serif" font-size="11">star growth (47 daily samples)</text><rect x="632" y="298" width="396" height="86" rx="10" fill="#0b1220" stroke="#1f2937"/><polyline fill="none" stroke="#5eead4" stroke-width="2" points="640.0,370.0 648.3,370.0 656.5,370.0 664.8,370.0 673.0,370.0 681.3,370.0 689.6,370.0 697.8,370.0 706.1,370.0 714.3,370.0 722.6,370.0 730.9,370.0 739.1,370.0 747.4,370.0 755.7,370.0 763.9,370.0 772.2,370.0 780.4,370.0 788.7,370.0 797.0,370.0 805.2,370.0 813.5,370.0 821.7,370.0 830.0,370.0 838.3,370.0 846.5,370.0 854.8,370.0 863.0,370.0 871.3,370.0 879.6,370.0 887.8,370.0 896.1,370.0 904.3,370.0 912.6,370.0 920.9,370.0 929.1,370.0 937.4,370.0 945.7,370.0 953.9,370.0 962.2,370.0 970.4,370.0 978.7,370.0 987.0,370.0 995.2,370.0 1003.5,370.0 1011.7,370.0 1020.0,370.0"/>
  <text x="40" y="430" fill="#6b7280" font-family="ui-sans-serif,system-ui,sans-serif" font-size="12">contributors: jeremy-jaeger · cursoragent</text>
  <text x="40" y="452" fill="#4b5563" font-family="ui-sans-serif,system-ui,sans-serif" font-size="11">+0 stars vs prior sample · tip 140b7bb</text>
</svg>
