<svg xmlns="http://www.w3.org/2000/svg" viewBox="0 0 1100 480" role="img" aria-label="Live repository pulse">
  <title>Loop Engineering Lite — live pulse</title>
  <desc>Generative graphic redrawn by CI from stars, forks, watchers, issues, contributors, and a stored daily history.</desc>
  <defs>
    <linearGradient id="bg" x1="0" y1="0" x2="1" y2="1">
      <stop offset="0%" stop-color="#070b14"/>
      <stop offset="100%" stop-color="#111827"/>
    </linearGradient>
  </defs>
  <rect width="1100" height="480" rx="20" fill="url(#bg)"/>
  <rect x="1" y="1" width="1098" height="478" rx="20" fill="none" stroke="#1f2937"/>
  <text x="40" y="42" fill="#5eead4" font-family="ui-sans-serif,system-ui,sans-serif" font-size="12" letter-spacing="3">SELF-UPDATING / CI WRITES THIS README</text>
  <text x="40" y="74" fill="#f9fafb" font-family="ui-sans-serif,system-ui,sans-serif" font-size="26" font-weight="700">Repository pulse</text>
  <text x="40" y="100" fill="#9ca3af" font-family="ui-sans-serif,system-ui,sans-serif" font-size="13">jeremy-jaeger/loop-engineering-lite · 2026-09-02 12:08 UTC · live GitHub API</text>
  <g><circle cx="320" cy="200" r="50" fill="none" stroke="rgba(20,184,166,0.35)" stroke-width="1.2" /><circle cx="320" cy="200" r="72" fill="none" stroke="rgba(20,184,166,0.31)" stroke-width="1.3" /><circle cx="320" cy="200" r="94" fill="none" stroke="rgba(20,184,166,0.27)" stroke-width="1.5" /></g>
  <g><circle cx="446.2" cy="159.1" r="1.8" fill="hsla(207,70%,65%,0.94)" /><circle cx="404.2" cy="177.0" r="4.0" fill="hsla(193,70%,65%,0.61)" /><circle cx="224.1" cy="234.3" r="3.6" fill="hsla(211,70%,65%,0.61)" /><circle cx="412.7" cy="238.5" r="4.0" fill="hsla(187,70%,65%,0.62)" /><circle cx="445.6" cy="209.1" r="4.0" fill="hsla(183,70%,65%,0.54)" /><circle cx="290.7" cy="153.4" r="3.5" fill="hsla(186,70%,65%,0.41)" /><circle cx="153.3" cy="291.1" r="2.1" fill="hsla(217,70%,65%,0.69)" /><circle cx="409.6" cy="245.1" r="4.0" fill="hsla(191,70%,65%,0.48)" /><circle cx="372.2" cy="166.1" r="1.3" fill="hsla(164,70%,65%,0.93)" /><circle cx="359.1" cy="169.7" r="2.0" fill="hsla(187,70%,65%,0.39)" /><circle cx="302.0" cy="181.0" r="3.7" fill="hsla(206,70%,65%,0.82)" /><circle cx="336.2" cy="322.3" r="1.8" fill="hsla(181,70%,65%,0.77)" /><circle cx="472.9" cy="147.6" r="3.1" fill="hsla(179,70%,65%,0.63)" /><circle cx="306.9" cy="138.8" r="3.6" fill="hsla(206,70%,65%,0.77)" /><circle cx="209.2" cy="305.0" r="2.9" fill="hsla(170,70%,65%,0.54)" /><circle cx="138.7" cy="163.1" r="3.2" fill="hsla(172,70%,65%,0.39)" /><circle cx="270.1" cy="219.9" r="3.2" fill="hsla(180,70%,65%,0.35)" /><circle cx="274.7" cy="190.8" r="2.2" fill="hsla(176,70%,65%,0.51)" /><circle cx="299.7" cy="173.1" r="2.1" fill="hsla(218,70%,65%,0.73)" /><circle cx="321.9" cy="114.3" r="4.3" fill="hsla(204,70%,65%,0.66)" /><circle cx="342.5" cy="344.2" r="2.0" fill="hsla(202,70%,65%,0.35)" /><circle cx="423.6" cy="259.3" r="3.6" fill="hsla(196,70%,65%,0.76)" /><circle cx="189.3" cy="119.0" r="2.4" fill="hsla(173,70%,65%,0.74)" /><circle cx="198.0" cy="126.5" r="3.0" fill="hsla(209,70%,65%,0.40)" /></g>
  <circle cx="320" cy="200" r="18" fill="#14b8a6"/>
  <text x="320" y="205" text-anchor="middle" fill="#042f2e" font-family="ui-sans-serif,system-ui,sans-serif" font-size="11" font-weight="700">VFS</text>
  <rect x="640" y="198.0" width="54" height="12.0" rx="8" fill="#5eead4" opacity="0.9"/><text x="667" y="236" text-anchor="middle" fill="#e5e7eb" font-family="ui-sans-serif,system-ui,sans-serif" font-size="13" font-weight="700">0</text><text x="667" y="256" text-anchor="middle" fill="#9ca3af" font-family="ui-sans-serif,system-ui,sans-serif" font-size="11">stars</text><rect x="740" y="198.0" width="54" height="12.0" rx="8" fill="#fbbf24" opacity="0.9"/><text x="767" y="236" text-anchor="middle" fill="#e5e7eb" font-family="ui-sans-serif,system-ui,sans-serif" font-size="13" font-weight="700">0</text><text x="767" y="256" text-anchor="middle" fill="#9ca3af" font-family="ui-sans-serif,system-ui,sans-serif" font-size="11">forks</text><rect x="840" y="198.0" width="54" height="12.0" rx="8" fill="#7dd3fc" opacity="0.9"/><text x="867" y="236" text-anchor="middle" fill="#e5e7eb" font-family="ui-sans-serif,system-ui,sans-serif" font-size="13" font-weight="700">0</text><text x="867" y="256" text-anchor="middle" fill="#9ca3af" font-family="ui-sans-serif,system-ui,sans-serif" font-size="11">watch</text><rect x="940" y="128.0" width="54" height="82.0" rx="8" fill="#fda4af" opacity="0.9"/><text x="967" y="236" text-anchor="middle" fill="#e5e7eb" font-family="ui-sans-serif,system-ui,sans-serif" font-size="13" font-weight="700">7</text><text x="967" y="256" text-anchor="middle" fill="#9ca3af" font-family="ui-sans-serif,system-ui,sans-serif" font-size="11">issues</text>
  <text x="640" y="292" fill="#9ca3af" font-family="ui-sans-serif,system-ui,sans-serif" font-size="11">star growth (10 daily samples)</text><rect x="632" y="298" width="396" height="86" rx="10" fill="#0b1220" stroke="#1f2937"/><polyline fill="none" stroke="#5eead4" stroke-width="2" points="640.0,370.0 682.2,370.0 724.4,370.0 766.7,370.0 808.9,370.0 851.1,370.0 893.3,370.0 935.6,370.0 977.8,370.0 1020.0,370.0"/>
  <text x="40" y="430" fill="#6b7280" font-family="ui-sans-serif,system-ui,sans-serif" font-size="12">contributors: cursoragent · jeremy-jaeger</text>
  <text x="40" y="452" fill="#4b5563" font-family="ui-sans-serif,system-ui,sans-serif" font-size="11">+0 stars vs prior sample · tip 9c416b4</text>
</svg>
