<svg xmlns="http://www.w3.org/2000/svg" viewBox="0 0 1100 480" role="img" aria-label="Live repository pulse">
  <title>Loop Engineering Lite — live pulse</title>
  <desc>Generative graphic redrawn by CI from stars, forks, watchers, issues, contributors, and a stored daily history.</desc>
  <defs>
    <linearGradient id="bg" x1="0" y1="0" x2="1" y2="1">
      <stop offset="0%" stop-color="#070b14"/>
      <stop offset="100%" stop-color="#111827"/>
    </linearGradient>
  </defs>
  <rect width="1100" height="480" rx="20" fill="url(#bg)"/>
  <rect x="1" y="1" width="1098" height="478" rx="20" fill="none" stroke="#1f2937"/>
  <text x="40" y="42" fill="#5eead4" font-family="ui-sans-serif,system-ui,sans-serif" font-size="12" letter-spacing="3">SELF-UPDATING / CI WRITES THIS README</text>
  <text x="40" y="74" fill="#f9fafb" font-family="ui-sans-serif,system-ui,sans-serif" font-size="26" font-weight="700">Repository pulse</text>
  <text x="40" y="100" fill="#9ca3af" font-family="ui-sans-serif,system-ui,sans-serif" font-size="13">jeremy-jaeger/loop-engineering-lite · 2026-09-12 11:37 UTC · live GitHub API</text>
  <g><circle cx="320" cy="200" r="50" fill="none" stroke="rgba(20,184,166,0.35)" stroke-width="1.2" /><circle cx="320" cy="200" r="72" fill="none" stroke="rgba(20,184,166,0.31)" stroke-width="1.3" /><circle cx="320" cy="200" r="94" fill="none" stroke="rgba(20,184,166,0.27)" stroke-width="1.5" /></g>
  <g><circle cx="200.3" cy="202.0" r="1.7" fill="hsla(203,70%,65%,0.50)" /><circle cx="475.3" cy="148.4" r="3.8" fill="hsla(182,70%,65%,0.56)" /><circle cx="334.7" cy="99.9" r="1.9" fill="hsla(172,70%,65%,0.53)" /><circle cx="408.5" cy="259.4" r="2.3" fill="hsla(210,70%,65%,0.72)" /><circle cx="382.1" cy="169.0" r="2.2" fill="hsla(177,70%,65%,0.41)" /><circle cx="167.0" cy="259.8" r="2.3" fill="hsla(212,70%,65%,0.26)" /><circle cx="206.3" cy="213.0" r="2.4" fill="hsla(209,70%,65%,0.76)" /><circle cx="368.1" cy="149.9" r="3.1" fill="hsla(199,70%,65%,0.86)" /><circle cx="392.9" cy="194.0" r="4.2" fill="hsla(200,70%,65%,0.25)" /><circle cx="353.5" cy="186.8" r="1.7" fill="hsla(215,70%,65%,0.78)" /><circle cx="342.3" cy="279.9" r="2.9" fill="hsla(205,70%,65%,0.75)" /><circle cx="399.2" cy="268.2" r="4.0" fill="hsla(204,70%,65%,0.80)" /><circle cx="461.7" cy="280.6" r="2.3" fill="hsla(185,70%,65%,0.84)" /><circle cx="233.0" cy="54.7" r="3.8" fill="hsla(200,70%,65%,0.62)" /><circle cx="327.4" cy="271.4" r="3.3" fill="hsla(180,70%,65%,0.35)" /><circle cx="411.6" cy="159.5" r="2.4" fill="hsla(178,70%,65%,0.59)" /><circle cx="245.0" cy="247.1" r="4.4" fill="hsla(212,70%,65%,0.82)" /><circle cx="328.7" cy="172.2" r="3.4" fill="hsla(177,70%,65%,0.65)" /><circle cx="280.6" cy="172.8" r="1.5" fill="hsla(193,70%,65%,0.92)" /><circle cx="160.6" cy="247.2" r="1.7" fill="hsla(179,70%,65%,0.92)" /><circle cx="224.3" cy="63.7" r="2.3" fill="hsla(200,70%,65%,0.26)" /><circle cx="177.7" cy="276.3" r="1.4" fill="hsla(205,70%,65%,0.92)" /><circle cx="298.8" cy="272.4" r="3.8" fill="hsla(164,70%,65%,0.43)" /><circle cx="394.7" cy="198.7" r="1.9" fill="hsla(188,70%,65%,0.34)" /></g>
  <circle cx="320" cy="200" r="18" fill="#14b8a6"/>
  <text x="320" y="205" text-anchor="middle" fill="#042f2e" font-family="ui-sans-serif,system-ui,sans-serif" font-size="11" font-weight="700">VFS</text>
  <rect x="640" y="198.0" width="54" height="12.0" rx="8" fill="#5eead4" opacity="0.9"/><text x="667" y="236" text-anchor="middle" fill="#e5e7eb" font-family="ui-sans-serif,system-ui,sans-serif" font-size="13" font-weight="700">0</text><text x="667" y="256" text-anchor="middle" fill="#9ca3af" font-family="ui-sans-serif,system-ui,sans-serif" font-size="11">stars</text><rect x="740" y="198.0" width="54" height="12.0" rx="8" fill="#fbbf24" opacity="0.9"/><text x="767" y="236" text-anchor="middle" fill="#e5e7eb" font-family="ui-sans-serif,system-ui,sans-serif" font-size="13" font-weight="700">0</text><text x="767" y="256" text-anchor="middle" fill="#9ca3af" font-family="ui-sans-serif,system-ui,sans-serif" font-size="11">forks</text><rect x="840" y="198.0" width="54" height="12.0" rx="8" fill="#7dd3fc" opacity="0.9"/><text x="867" y="236" text-anchor="middle" fill="#e5e7eb" font-family="ui-sans-serif,system-ui,sans-serif" font-size="13" font-weight="700">0</text><text x="867" y="256" text-anchor="middle" fill="#9ca3af" font-family="ui-sans-serif,system-ui,sans-serif" font-size="11">watch</text><rect x="940" y="128.0" width="54" height="82.0" rx="8" fill="#fda4af" opacity="0.9"/><text x="967" y="236" text-anchor="middle" fill="#e5e7eb" font-family="ui-sans-serif,system-ui,sans-serif" font-size="13" font-weight="700">4</text><text x="967" y="256" text-anchor="middle" fill="#9ca3af" font-family="ui-sans-serif,system-ui,sans-serif" font-size="11">issues</text>
  <text x="640" y="292" fill="#9ca3af" font-family="ui-sans-serif,system-ui,sans-serif" font-size="11">star growth (20 daily samples)</text><rect x="632" y="298" width="396" height="86" rx="10" fill="#0b1220" stroke="#1f2937"/><polyline fill="none" stroke="#5eead4" stroke-width="2" points="640.0,370.0 660.0,370.0 680.0,370.0 700.0,370.0 720.0,370.0 740.0,370.0 760.0,370.0 780.0,370.0 800.0,370.0 820.0,370.0 840.0,370.0 860.0,370.0 880.0,370.0 900.0,370.0 920.0,370.0 940.0,370.0 960.0,370.0 980.0,370.0 1000.0,370.0 1020.0,370.0"/>
  <text x="40" y="430" fill="#6b7280" font-family="ui-sans-serif,system-ui,sans-serif" font-size="12">contributors: jeremy-jaeger · cursoragent</text>
  <text x="40" y="452" fill="#4b5563" font-family="ui-sans-serif,system-ui,sans-serif" font-size="11">+0 stars vs prior sample · tip b1a45ac</text>
</svg>
